<mxfile host="app.diagrams.net" agent="Mozilla/5.0 (Windows NT 10.0; Win64; x64) AppleWebKit/537.36 (KHTML, like Gecko) Chrome/134.0.0.0 Safari/537.36" version="26.1.3">
  <diagram name="Страница — 1" id="hi3maOYxdtd5-xxtNOdB">
    <mxGraphModel dx="1311" dy="666" grid="1" gridSize="10" guides="1" tooltips="1" connect="1" arrows="1" fold="1" page="1" pageScale="1" pageWidth="827" pageHeight="1169" math="0" shadow="0">
      <root>
        <mxCell id="0" />
        <mxCell id="1" parent="0" />
        <mxCell id="FxxYlGLEtM2QjZ5-GXDw-1" style="edgeStyle=orthogonalEdgeStyle;rounded=0;orthogonalLoop=1;jettySize=auto;html=1;fontSize=14;fontFamily=Helvetica;" edge="1" parent="1" source="FxxYlGLEtM2QjZ5-GXDw-2" target="FxxYlGLEtM2QjZ5-GXDw-4">
          <mxGeometry relative="1" as="geometry">
            <mxPoint x="260" y="220" as="targetPoint" />
          </mxGeometry>
        </mxCell>
        <mxCell id="FxxYlGLEtM2QjZ5-GXDw-2" value="Начало&lt;div&gt;SetupList&lt;/div&gt;" style="rounded=1;whiteSpace=wrap;html=1;fontSize=14;fontFamily=Helvetica;" vertex="1" parent="1">
          <mxGeometry x="200" y="120" width="120" height="60" as="geometry" />
        </mxCell>
        <mxCell id="FxxYlGLEtM2QjZ5-GXDw-3" style="edgeStyle=orthogonalEdgeStyle;rounded=0;orthogonalLoop=1;jettySize=auto;html=1;fontSize=14;fontFamily=Helvetica;" edge="1" parent="1" source="FxxYlGLEtM2QjZ5-GXDw-4" target="FxxYlGLEtM2QjZ5-GXDw-6">
          <mxGeometry relative="1" as="geometry">
            <mxPoint x="260" y="300" as="targetPoint" />
          </mxGeometry>
        </mxCell>
        <mxCell id="FxxYlGLEtM2QjZ5-GXDw-4" value="Ввести lst" style="shape=parallelogram;perimeter=parallelogramPerimeter;whiteSpace=wrap;html=1;fixedSize=1;fontSize=14;fontFamily=Helvetica;" vertex="1" parent="1">
          <mxGeometry x="200" y="200" width="120" height="60" as="geometry" />
        </mxCell>
        <mxCell id="FxxYlGLEtM2QjZ5-GXDw-11" style="edgeStyle=orthogonalEdgeStyle;rounded=0;orthogonalLoop=1;jettySize=auto;html=1;entryX=0.5;entryY=0;entryDx=0;entryDy=0;" edge="1" parent="1" source="FxxYlGLEtM2QjZ5-GXDw-6" target="FxxYlGLEtM2QjZ5-GXDw-10">
          <mxGeometry relative="1" as="geometry" />
        </mxCell>
        <mxCell id="FxxYlGLEtM2QjZ5-GXDw-6" value="&lt;div&gt;myList.first = 0&amp;nbsp; &amp;nbsp;&amp;nbsp;&lt;span style=&quot;background-color: transparent; color: light-dark(rgb(0, 0, 0), rgb(255, 255, 255));&quot;&gt;myList.last = 0&amp;nbsp;&amp;nbsp;&lt;/span&gt;&lt;/div&gt;&lt;div&gt;&amp;nbsp; myList.count = 0&lt;/div&gt;" style="rounded=0;whiteSpace=wrap;html=1;fontSize=14;fontFamily=Helvetica;" vertex="1" parent="1">
          <mxGeometry x="200" y="290" width="120" height="60" as="geometry" />
        </mxCell>
        <mxCell id="FxxYlGLEtM2QjZ5-GXDw-7" value="Конец&lt;div&gt;SetupList&lt;/div&gt;" style="rounded=1;whiteSpace=wrap;html=1;fontSize=14;" vertex="1" parent="1">
          <mxGeometry x="200" y="730" width="120" height="60" as="geometry" />
        </mxCell>
        <mxCell id="FxxYlGLEtM2QjZ5-GXDw-15" style="edgeStyle=orthogonalEdgeStyle;rounded=0;orthogonalLoop=1;jettySize=auto;html=1;entryX=0.5;entryY=0;entryDx=0;entryDy=0;" edge="1" parent="1" source="FxxYlGLEtM2QjZ5-GXDw-8" target="FxxYlGLEtM2QjZ5-GXDw-13">
          <mxGeometry relative="1" as="geometry" />
        </mxCell>
        <mxCell id="FxxYlGLEtM2QjZ5-GXDw-8" value="Цикл1&lt;div&gt;i = Длина(lst) - 1&lt;/div&gt;" style="strokeWidth=2;html=1;shape=mxgraph.flowchart.loop_limit;whiteSpace=wrap;" vertex="1" parent="1">
          <mxGeometry x="210" y="440" width="100" height="60" as="geometry" />
        </mxCell>
        <mxCell id="FxxYlGLEtM2QjZ5-GXDw-12" style="edgeStyle=orthogonalEdgeStyle;rounded=0;orthogonalLoop=1;jettySize=auto;html=1;" edge="1" parent="1" source="FxxYlGLEtM2QjZ5-GXDw-10" target="FxxYlGLEtM2QjZ5-GXDw-8">
          <mxGeometry relative="1" as="geometry" />
        </mxCell>
        <mxCell id="FxxYlGLEtM2QjZ5-GXDw-10" value="i = 1" style="rounded=0;whiteSpace=wrap;html=1;" vertex="1" parent="1">
          <mxGeometry x="200" y="380" width="120" height="30" as="geometry" />
        </mxCell>
        <mxCell id="FxxYlGLEtM2QjZ5-GXDw-13" value="&lt;div&gt;&lt;font style=&quot;font-size: 14px;&quot;&gt;myList.nodes[i].next = i + 1&lt;span style=&quot;background-color: transparent; color: light-dark(rgb(0, 0, 0), rgb(255, 255, 255));&quot;&gt;&amp;nbsp; &amp;nbsp; myList.nodes[len_lst].next = 0&lt;/span&gt;&lt;/font&gt;&lt;/div&gt;&lt;div&gt;&lt;font style=&quot;font-size: 14px;&quot;&gt;&amp;nbsp; &amp;nbsp; myList.free = 1&lt;/font&gt;&lt;/div&gt;" style="rounded=0;whiteSpace=wrap;html=1;" vertex="1" parent="1">
          <mxGeometry x="157.5" y="540" width="205" height="60" as="geometry" />
        </mxCell>
        <mxCell id="FxxYlGLEtM2QjZ5-GXDw-20" style="edgeStyle=orthogonalEdgeStyle;rounded=0;orthogonalLoop=1;jettySize=auto;html=1;entryX=0.5;entryY=0;entryDx=0;entryDy=0;" edge="1" parent="1" source="FxxYlGLEtM2QjZ5-GXDw-17" target="FxxYlGLEtM2QjZ5-GXDw-7">
          <mxGeometry relative="1" as="geometry" />
        </mxCell>
        <mxCell id="FxxYlGLEtM2QjZ5-GXDw-17" value="Цикл1" style="strokeWidth=2;html=1;shape=mxgraph.flowchart.loop_limit;whiteSpace=wrap;direction=west;" vertex="1" parent="1">
          <mxGeometry x="210" y="630" width="100" height="60" as="geometry" />
        </mxCell>
        <mxCell id="FxxYlGLEtM2QjZ5-GXDw-18" style="edgeStyle=orthogonalEdgeStyle;rounded=0;orthogonalLoop=1;jettySize=auto;html=1;entryX=0.5;entryY=1;entryDx=0;entryDy=0;entryPerimeter=0;" edge="1" parent="1" source="FxxYlGLEtM2QjZ5-GXDw-13" target="FxxYlGLEtM2QjZ5-GXDw-17">
          <mxGeometry relative="1" as="geometry" />
        </mxCell>
      </root>
    </mxGraphModel>
  </diagram>
</mxfile>
